Coordinates
version=1
nRows=4
nColumns=114
inDegrees=yes

Units are S.I. units (second, meters, Newtons, ...)
If the header above contains a line with 'inDegrees', this indicates whether rotational values are in degrees (yes) or radians (no).

endheader 
time	pelvis_tilt	pelvis_list	pelvis_rotation	pelvis_tx	pelvis_ty	pelvis_tz	hip_flexion_l	hip_adduction_l	hip_rotation_l	hip_flexion_r	hip_adduction_r	hip_rotation_r	knee_angle_l	knee_angle_r	ankle_angle_l	ankle_angle_r	subtalar_angle_l	subtalar_angle_r	mtp_angle_l	mtp_angle_r	lumbar_extension	lumbar_bending	lumbar_rotation	arm_flex_l	arm_add_l	arm_rot_l	arm_flex_r	arm_add_r	arm_rot_r	elbow_flex_l	elbow_flex_r	pro_sup_l	pro_sup_r	addbrev_l/activation	addlong_l/activation	addmagDist_l/activation	addmagIsch_l/activation	addmagMid_l/activation	addmagProx_l/activation	bflh_l/activation	bfsh_l/activation	edl_l/activation	ehl_l/activation	fdl_l/activation	fhl_l/activation	gaslat_l/activation	gasmed_l/activation	glmax1_l/activation	glmax2_l/activation	glmax3_l/activation	glmed1_l/activation	glmed2_l/activation	glmed3_l/activation	glmin1_l/activation	glmin2_l/activation	glmin3_l/activation	grac_l/activation	iliacus_l/activation	perbrev_l/activation	perlong_l/activation	piri_l/activation	psoas_l/activation	recfem_l/activation	sart_l/activation	semimem_l/activation	semiten_l/activation	soleus_l/activation	tfl_l/activation	tibant_l/activation	tibpost_l/activation	vasint_l/activation	vaslat_l/activation	vasmed_l/activation	addbrev_r/activation	addlong_r/activation	addmagDist_r/activation	addmagIsch_r/activation	addmagMid_r/activation	addmagProx_r/activation	bflh_r/activation	bfsh_r/activation	edl_r/activation	ehl_r/activation	fdl_r/activation	fhl_r/activation	gaslat_r/activation	gasmed_r/activation	glmax1_r/activation	glmax2_r/activation	glmax3_r/activation	glmed1_r/activation	glmed2_r/activation	glmed3_r/activation	glmin1_r/activation	glmin2_r/activation	glmin3_r/activation	grac_r/activation	iliacus_r/activation	perbrev_r/activation	perlong_r/activation	piri_r/activation	psoas_r/activation	recfem_r/activation	sart_r/activation	semimem_r/activation	semiten_r/activation	soleus_r/activation	tfl_r/activation	tibant_r/activation	tibpost_r/activation	vasint_r/activation	vaslat_r/activation	vasmed_r/activation	
          2.52000000	        -13.65999725	         -4.82035378	        -44.63240370	          1.33115042	          0.90286364	          0.28810865	         20.39244828	         -7.61217839	          4.80949289	         50.98989240	          1.51410038	        -11.83798794	         38.90238490	        105.38754708	         24.61803303	          9.21015466	        -16.95727599	        -12.65341146	        -14.28172567	         -1.10267748	        -24.72518100	         11.78069541	         14.20071969	        -11.65931164	        -20.32510383	        -12.25906916	         -5.31340456	        -26.07936339	         26.16079194	         19.52652124	         40.72432227	         82.16072782	         67.94894520	          0.01012405	          0.01007317	          0.01015016	          0.01036995	          0.01012160	          0.01013805	          0.01013017	          0.01483995	          0.01683443	          0.01067285	          0.02583662	          0.04402550	          0.04109831	          0.04023524	          0.13536045	          0.14672763	          0.01009459	          0.63188486	          0.39414975	          0.31178015	          0.18780689	          0.17518775	          0.14873319	          0.01019973	          0.01847158	          0.14940560	          0.18287383	          0.12094941	          0.01630981	          0.17539370	          0.04072648	          0.01320899	          0.01032257	          0.26888471	          0.13296299	          0.02571173	          0.08040864	          0.07736959	          0.21759725	          0.10410491	          0.01001547	          0.01001340	          0.01001926	          0.01002009	          0.01001969	          0.01005293	          0.32268239	          0.63314935	          0.28042190	          0.15904148	          0.01024316	          0.01007410	          0.17327802	          0.20663842	          0.03559975	          0.02272329	          0.01002369	          0.01002066	          0.01010244	          0.07898639	          0.01004181	          0.01010238	          0.01891136	          0.01008633	          0.01015126	          0.09023293	          0.07726273	          0.32021554	          0.27320597	          0.16887575	          0.99988025	          0.15512143	          0.01021041	          0.01000392	          0.14417991	          0.50747440	          0.01006217	          0.01001770	          0.01000613	          0.01001197	
          2.53000000	        -13.04944078	         -4.14968456	        -44.13901103	          1.32895922	          0.89869279	          0.28762352	         21.49375406	         -6.73410157	          4.55742061	         50.26913145	          1.62192142	        -11.26353758	         40.68016625	        102.59016295	         25.44608563	         10.64725404	        -16.58876806	        -12.21754702	        -13.77550360	         -0.96976576	        -25.04983685	         10.81521841	         13.96292963	         -9.13858951	        -19.66340018	        -11.02531448	         -4.25010229	        -25.11428511	         26.64006909	         18.28150422	         38.61710258	         83.71958323	         67.69156512	          0.01011223	          0.01007676	          0.01020846	          0.02166607	          0.01011743	          0.01011404	          0.01022026	          0.01275039	          0.01424827	          0.01090663	          0.02158627	          0.03671321	          0.03425139	          0.03845946	          0.16383603	          0.15264663	          0.01010245	          0.52672301	          0.37680928	          0.37572218	          0.15664079	          0.14667399	          0.15568017	          0.01017527	          0.01544454	          0.13025193	          0.17451930	          0.10088153	          0.01360930	          0.14616696	          0.03396029	          0.01438560	          0.01268145	          0.31576173	          0.11087015	          0.02143565	          0.06701645	          0.07481261	          0.22557598	          0.10526419	          0.01002301	          0.01001986	          0.01002488	          0.01002367	          0.01002729	          0.01008127	          0.28461448	          0.52772745	          0.26807405	          0.16131735	          0.01025613	          0.01007574	          0.14442768	          0.17221564	          0.02968356	          0.01894498	          0.01003136	          0.01001808	          0.01006172	          0.06584220	          0.01004037	          0.01007313	          0.01578503	          0.01667944	          0.01021205	          0.10037183	          0.08895286	          0.26696081	          0.36393654	          0.14535095	          0.85334054	          0.12927569	          0.02550915	          0.01000414	          0.12015856	          0.49737840	          0.01006168	          0.01001939	          0.01000673	          0.01001324	
          2.54000000	        -12.59382244	         -3.34229685	        -43.69056765	          1.32641340	          0.89409690	          0.28741938	         22.79793253	         -5.91054138	          4.23962804	         49.88673998	          1.75982525	        -10.64536831	         42.43110457	        100.10728019	         26.22227269	         11.77712038	        -16.24376511	        -11.93597411	        -13.29884429	         -0.85451563	        -25.18116683	          9.79834318	         13.64129297	         -6.96051768	        -19.07917428	         -9.43655395	         -3.33763709	        -24.25576237	         27.07128938	         17.60290201	         36.91562905	         85.54769032	         67.23248579	          0.01009474	          0.01006683	          0.01013077	          0.01817868	          0.01009257	          0.01010010	          0.01006267	          0.01151631	          0.01204528	          0.01061032	          0.01802508	          0.03062187	          0.03361406	          0.03205591	          0.19933398	          0.20606936	          0.01006661	          0.43894612	          0.31403527	          0.31663031	          0.13056141	          0.12228055	          0.12992828	          0.01015540	          0.01294056	          0.10860777	          0.14893636	          0.14067186	          0.01137505	          0.12182002	          0.02832527	          0.01201157	          0.01098167	          0.35429090	          0.09241287	          0.01787330	          0.05586274	          0.11742256	          0.24279475	          0.11921263	          0.01009527	          0.01007897	          0.01006372	          0.01004870	          0.01009462	          0.01169421	          0.23718337	          0.43980403	          0.23292516	          0.13669533	          0.01020706	          0.01006697	          0.12036991	          0.14352155	          0.02475361	          0.01579711	          0.01008584	          0.01001971	          0.01004841	          0.05489102	          0.01004906	          0.01006552	          0.01318717	          0.01485958	          0.01037792	          0.09944983	          0.09545468	          0.25885236	          0.38121693	          0.24217898	          0.71114588	          0.10774822	          0.02128808	          0.01000404	          0.10521507	          0.41512520	          0.01005268	          0.01002768	          0.01000965	          0.01001909	
          2.55000000	        -12.25952939	         -2.43091083	        -43.25875219	          1.32359147	          0.88913393	          0.28755051	         24.22338503	         -5.13927393	          3.87131387	         49.76634168	          1.94529990	         -9.97387837	         44.09573115	         97.95969792	         26.93716245	         12.64216624	        -15.88331629	        -11.76505415	        -12.90184101	         -0.74924456	        -25.14659848	          8.73550340	         13.19994329	         -5.08226454	        -18.62593161	         -7.91164178	         -2.54714634	        -23.45038417	         27.39818036	         17.50696011	         35.70289739	         86.99183288	         66.75229405	          0.01015741	          0.01011989	          0.01021455	          0.01533815	          0.01014228	          0.01021129	          0.09826508	          0.01019477	          0.01031149	          0.01022854	          0.02260502	          0.03952850	          0.02801650	          0.15540887	          0.17489896	          0.26293165	          0.01042598	          0.36579308	          0.26170689	          0.26390233	          0.10881426	          0.10192157	          0.10831651	          0.01016615	          0.01088318	          0.09052863	          0.12412285	          0.16999849	          0.01018822	          0.10152168	          0.02363212	          0.01002572	          0.01006528	          0.32604476	          0.07702778	          0.01490906	          0.05459345	          0.16957380	          0.23472879	          0.10976966	          0.01003821	          0.01003519	          0.01003024	          0.01002791	          0.01003593	          0.01012603	          0.19766077	          0.36653374	          0.20286618	          0.11439427	          0.01028930	          0.01009135	          0.10032582	          0.11961206	          0.02066207	          0.01318040	          0.01003243	          0.01003230	          0.01010331	          0.04585843	          0.01007455	          0.01013369	          0.01121829	          0.01240894	          0.12198430	          0.09155742	          0.10182472	          0.24004941	          0.32960714	          0.20185027	          0.59267322	          0.08979260	          0.01775014	          0.01000542	          0.13447188	          0.34634089	          0.01007366	          0.01003864	          0.01001354	          0.01002688	
